<?xml version="1.0" encoding="utf-8"?>
<!-- Generator: Adobe Illustrator 16.0.0, SVG Export Plug-In . SVG Version: 6.00 Build 0)  -->
<!DOCTYPE svg PUBLIC "-//W3C//DTD SVG 1.1//EN" "http://www.w3.org/Graphics/SVG/1.1/DTD/svg11.dtd">
<svg version="1.1" id="Calque_1" xmlns="http://www.w3.org/2000/svg" xmlns:xlink="http://www.w3.org/1999/xlink" x="0px" y="0px"
	 width="12.995px" height="15.36px" viewBox="0 0 12.995 15.36" enable-background="new 0 0 12.995 15.36" xml:space="preserve">
<path fill="#6D6969" d="M11.555,0.96c0.265,0,0.48,0.215,0.48,0.48v12.48c0,0.265-0.215,0.48-0.48,0.48H1.962
	c-0.002,0-0.005,0-0.008,0V0.99c0-0.011,0.001-0.021,0.002-0.03c0.007,0,0.017,0,0.028,0H11.555 M11.555,0h-9.57
	c-0.69,0-0.99,0.51-0.99,0.99V14.4c0,0.795,0.623,0.96,0.968,0.96h9.593c0.795,0,1.44-0.645,1.44-1.44V1.44
	C12.995,0.644,12.35,0,11.555,0L11.555,0z"/>
<path fill="#6D6969" d="M2.89,3.37c0,0.26-0.21,0.47-0.47,0.47H0.47C0.21,3.84,0,3.63,0,3.37l0,0C0,3.111,0.21,2.9,0.47,2.9h1.949
	C2.679,2.9,2.89,3.111,2.89,3.37L2.89,3.37z"/>
<path fill="#6D6969" d="M2.935,6.241c0,0.26-0.21,0.47-0.47,0.47h-1.95c-0.26,0-0.47-0.21-0.47-0.47l0,0c0-0.26,0.21-0.47,0.47-0.47
	h1.95C2.724,5.771,2.935,5.982,2.935,6.241L2.935,6.241z"/>
<path fill="#6D6969" d="M2.924,9.123c0,0.26-0.21,0.47-0.47,0.47H0.505c-0.26,0-0.47-0.21-0.47-0.47l0,0c0-0.26,0.21-0.47,0.47-0.47
	h1.949C2.714,8.653,2.924,8.864,2.924,9.123L2.924,9.123z"/>
<path fill="#6D6969" d="M2.924,11.991c0,0.26-0.21,0.47-0.47,0.47H0.505c-0.26,0-0.47-0.21-0.47-0.47l0,0
	c0-0.26,0.21-0.47,0.47-0.47h1.949C2.714,11.521,2.924,11.731,2.924,11.991L2.924,11.991z"/>
<path fill="#6D6969" d="M10.595,14.7h-0.96V0.42h0.96V14.7z"/>
</svg>
