<?xml version="1.0" encoding="utf-8"?>
<!-- Generator: Adobe Illustrator 16.0.0, SVG Export Plug-In . SVG Version: 6.00 Build 0)  -->
<!DOCTYPE svg PUBLIC "-//W3C//DTD SVG 1.1//EN" "http://www.w3.org/Graphics/SVG/1.1/DTD/svg11.dtd">
<svg version="1.1" id="Calque_1" xmlns="http://www.w3.org/2000/svg" xmlns:xlink="http://www.w3.org/1999/xlink" x="0px" y="0px"
	 width="15.36px" height="12.486px" viewBox="0 0 15.36 12.486" enable-background="new 0 0 15.36 12.486" xml:space="preserve">
<path fill="none" d="M14.4,0.96v8.163H0.96V0.96H14.4 M14.4,0H0.96C0.432,0,0,0.432,0,0.96v8.163c0,0.528,0.432,0.96,0.96,0.96H14.4
	c0.527,0,0.96-0.432,0.96-0.96V0.96C15.36,0.432,14.928,0,14.4,0L14.4,0z"/>
<path fill-rule="evenodd" clip-rule="evenodd" fill="none" d="M8.16,9.606v1.92h2.4c0.265,0,0.48,0.215,0.48,0.48
	c0,0.265-0.215,0.48-0.48,0.48H4.8c-0.265,0-0.48-0.215-0.48-0.48c0-0.265,0.215-0.48,0.48-0.48h2.4v-1.92H8.16z"/>
</svg>
